Coordinates
version=1
nRows=18
nColumns=22
inDegrees=yes

Units are S.I. units (second, meters, Newtons, ...)
If the header above contains a line with 'inDegrees', this indicates whether rotational values are in degrees (yes) or radians (no).

endheader
time	pelvis_tilt	pelvis_list	pelvis_rotation	pelvis_tx	pelvis_ty	pelvis_tz	hip_flexion_r	hip_adduction_r	hip_rotation_r	knee_angle_r	ankle_angle_r	subtalar_angle_r	hip_flexion_l	hip_adduction_l	hip_rotation_l	knee_angle_l	ankle_angle_l	subtalar_angle_l	lumbar_extension	lumbar_bending	lumbar_rotation
      3.79000000	     -0.40492422	     -3.78117045	     -2.31217990	     -0.56627061	      0.91949243	      0.08991569	     27.80296478	      5.66800283	     -1.88006339	    -39.26434883	      2.19333541	      2.22028058	     -1.11431623	     -2.31223136	    -10.41736704	    -26.12057287	     17.52965964	     -8.10484504	    -11.57392231	      0.66529440	      0.07170002
      3.80000000	     -0.58470115	     -3.89709367	     -2.19570903	     -0.57080599	      0.92038683	      0.08934379	     27.47118107	      5.72805409	     -1.69231321	    -40.71380930	      2.77573799	      2.03059221	     -0.92004423	     -2.40162721	    -10.49509261	    -25.47961606	     17.41875374	     -8.04331996	    -11.26466443	      0.91493749	      0.06426817
      3.81000000	     -0.77033827	     -3.97886008	     -2.07942060	     -0.57527311	      0.92106449	      0.08878331	     27.11965393	      5.74033342	     -1.49401894	    -42.14071757	      3.30327746	      1.81587984	     -0.74817448	     -2.44801308	    -10.54790156	    -24.79984998	     17.34014620	     -7.95694559	    -10.94788705	      1.12562012	      0.09427627
      3.82000000	     -0.95529195	     -4.03455459	     -1.95528890	     -0.57968437	      0.92153513	      0.08825330	     26.73516298	      5.71579759	     -1.27624850	    -43.51993868	      3.78947185	      1.61762162	     -0.60283984	     -2.46481071	    -10.57891218	    -24.08449996	     17.30676633	     -7.86001313	    -10.63478591	      1.29990934	      0.13380983
      3.83000000	     -1.14471538	     -4.04858313	     -1.83051601	     -0.58404957	      0.92178660	      0.08776421	     26.32917920	      5.63875935	     -1.03647822	    -44.84229438	      4.24506590	      1.41557359	     -0.48166618	     -2.43433751	    -10.58201461	    -23.32874091	     17.30075282	     -7.74780032	    -10.31761435	      1.41762985	      0.18836081
      3.84000000	     -1.33747758	     -4.02398752	     -1.69818194	     -0.58837435	      0.92183401	      0.08729753	     25.89669553	      5.50855486	     -0.78282446	    -46.08151828	      4.67292095	      1.23054549	     -0.38265967	     -2.36007012	    -10.56207212	    -22.53646541	     17.31988134	     -7.63642434	    -10.00131472	      1.48765271	      0.24379958
      3.85000000	     -1.53338636	     -3.95214305	     -1.55712855	     -0.59265883	      0.92169333	      0.08685875	     25.43768657	      5.31459369	     -0.51924700	    -47.21979795	      5.08811471	      1.06361852	     -0.30296618	     -2.23394692	    -10.52037533	    -21.71191185	     17.34687494	     -7.53140841	     -9.68566187	      1.49644773	      0.29589341
      3.86000000	     -1.73351073	     -3.82208838	     -1.40633395	     -0.59690564	      0.92139579	      0.08643488	     24.95307422	      5.04242349	     -0.25103051	    -48.23212961	      5.49920854	      0.89452615	     -0.23757082	     -2.04339372	    -10.45922687	    -20.86041263	     17.34455148	     -7.43005984	     -9.37055893	      1.43412259	      0.34132880
      3.87000000	     -1.93613490	     -3.63145981	     -1.24118748	     -0.60109479	      0.92097734	      0.08603716	     24.43471714	      4.68832873	      0.01055691	    -49.09099066	      5.92183411	      0.72787108	     -0.18608574	     -1.78763917	    -10.38185304	    -19.98613585	     17.30372513	     -7.33328651	     -9.05489579	      1.29282974	      0.37190285
      3.88000000	     -2.13797584	     -3.37829598	     -1.06028398	     -0.60521211	      0.92048908	      0.08565366	     23.87628681	      4.24638469	      0.25246405	    -49.76956260	      6.36335404	      0.57542299	     -0.14469958	     -1.46599919	    -10.29500830	    -19.10334351	     17.21623246	     -7.23222737	     -8.74102649	      1.07361628	      0.38326093
      3.89000000	     -2.33936120	     -3.06209136	     -0.86194550	     -0.60925299	      0.91998210	      0.08527647	     23.27439860	      3.71287708	      0.46338253	    -50.24055280	      6.82524013	      0.43196580	     -0.10825877	     -1.08032887	    -10.20517193	    -18.21830374	     17.06805711	     -7.10399230	     -8.43164062	      0.77772503	      0.37462054
      3.90000000	     -2.53933896	     -2.68553161	     -0.64546887	     -0.61319761	      0.91950795	      0.08491239	     22.62423491	      3.08838175	      0.62508954	    -50.47944065	      7.31039780	      0.30220303	     -0.07094347	     -0.63772544	    -10.12163568	    -17.34480053	     16.86241386	     -6.91611696	     -8.12505665	      0.40795908	      0.34759506
      3.91000000	     -2.73799457	     -2.26283235	     -0.41332145	     -0.61703361	      0.91911698	      0.08457463	     21.92223393	      2.39002662	      0.72611377	    -50.46290081	      7.80315326	      0.17217265	     -0.02739141	     -0.15742907	    -10.05179664	    -16.49374863	     16.60261911	     -6.62743952	     -7.82084495	     -0.02038053	      0.30597599
      3.92000000	     -2.92429818	     -1.83165980	     -0.17648755	     -0.62073133	      0.91887512	      0.08430030	     21.14585905	      1.66798290	      0.76458692	    -50.15864319	      8.29590813	     -0.02604071	      0.00757593	      0.31601965	     -9.99624814	    -15.66499809	     16.30451364	     -6.12157672	     -7.52922763	     -0.46496866	      0.27381215
      3.93000000	     -3.14047396	     -1.36347752	      0.08130993	     -0.62433759	      0.91872355	      0.08404563	     20.36298294	      0.87812886	      0.70891595	    -49.59725797	      8.77097640	     -0.10651634	      0.11485949	      0.81127396	     -9.96660967	    -14.91940602	     16.00078973	     -5.60842961	     -7.20335474	     -0.95579726	      0.22253401
      3.94000000	     -3.33575696	     -0.96222031	      0.32818398	     -0.62779748	      0.91878659	      0.08391369	     19.48613539	      0.16598137	      0.59316984	    -48.71181311	      9.23220102	     -0.28376813	      0.21261391	      1.21174678	     -9.97269617	    -14.21579716	     15.66173828	     -4.75138600	     -6.89914307	     -1.37528798	      0.19957789
      3.95000000	     -3.56837248	     -0.54184514	      0.57933290	     -0.63119068	      0.91893649	      0.08380973	     18.62926681	     -0.58552189	      0.38330054	    -47.59293101	      9.63521457	     -0.36105443	      0.38652395	      1.62589911	     -9.96937198	    -13.58917383	     15.35792636	     -4.02313989	     -6.55589271	     -1.81739454	      0.18014435
      3.96000000	     -3.76999413	     -0.25743281	      0.80426943	     -0.63445482	      0.91930818	      0.08389220	     17.67306424	     -1.16202723	      0.12553783	    -46.15422109	      9.97222219	     -0.49666649	      0.55988327	      1.86804833	    -10.03181912	    -13.04555978	     15.01732734	     -2.98874728	     -6.24437400	     -2.11302553	      0.21946601
